Coordinates
version=1
nRows=9
nColumns=32
inDegrees=yes

Units are S.I. units (second, meters, Newtons, ...)
If the header above contains a line with 'inDegrees', this indicates whether rotational values are in degrees (yes) or radians (no).

endheader
time	pelvis_tilt	pelvis_list	pelvis_rotation	pelvis_tx	pelvis_ty	pelvis_tz	hip_flexion_r	hip_adduction_r	hip_rotation_r	knee_angle_r	knee_adduction_r	med_cond_adduction_r	lat_cond_adduction_r	patella_r_constrained_knee_angle	hip_flexion_l	hip_adduction_l	hip_rotation_l	knee_angle_l	knee_adduction_l	med_cond_adduction_l	lat_cond_adduction_l	patella_l_constrained_knee_angle	lumbar_extension	lumbar_bending	lumbar_rotation	ankle_angle_r	subtalar_angle_r	mtp_angle_r	ankle_angle_l	subtalar_angle_l	mtp_angle_l
      1.77000000	    -15.09897950	     -1.90450539	     -1.29741402	     -0.32095809	      0.69044689	      0.36878826	     29.49609498	      5.43511424	      2.06959739	    -22.33353214	     -4.58062149	      0.00000000	      0.00000000	     -0.38979367	     38.37023540	     -8.13138557	     -1.10065838	    -65.50948536	      3.96235216	     -0.00000000	     -0.00000000	     -1.14335621	      0.68223600	      6.77761240	     -1.68521856	      5.94566956	     11.20560358	     -0.00000000	     -0.22288577	      3.73267965	      0.00000000
      1.77500000	    -15.05660741	     -1.61813204	     -1.33802127	     -0.31472680	      0.69172151	      0.36847321	     28.44984919	      5.08241443	      1.93270914	    -21.47884711	     -4.70392192	     -0.00000000	     -0.00000000	     -0.37487660	     38.86344002	     -7.72397495	     -0.63991464	    -64.19431695	      4.64396211	     -0.00000000	     -0.00000000	     -1.12040219	      0.68074357	      6.45216195	     -1.51745018	      5.57249953	     11.89858117	      0.00000000	     -0.06217725	      3.26186991	      0.00000000
      1.78000000	    -15.01255811	     -1.34223588	     -1.45663523	     -0.30850537	      0.69291363	      0.36824762	     27.46613882	      4.78578948	      1.83058436	    -20.73827290	     -4.79692915	     -0.00000000	     -0.00000000	     -0.36195114	     39.29275849	     -7.41224673	     -0.20230168	    -62.74993251	      5.38620500	     -0.00000000	     -0.00000000	     -1.09519293	      0.57586096	      6.16618887	     -1.27434037	      5.75896250	     12.22409756	      0.00000000	      0.20000697	      2.91350291	      0.00000000
      1.78500000	    -15.00389086	     -1.04517383	     -1.54333175	     -0.30232734	      0.69392240	      0.36790451	     26.53480741	      4.40089703	      1.85248930	    -20.05858746	     -4.75149100	      0.00000000	      0.00000000	     -0.35008839	     39.75279614	     -7.02689526	      0.31537719	    -61.26772407	      6.12669481	      0.00000000	      0.00000000	     -1.06932351	      0.50734661	      5.90515077	     -1.03748395	      6.50258714	     12.10996839	      0.00000000	      0.67052859	      2.81698005	      0.00000000
      1.79000000	    -14.95152448	     -0.80792254	     -1.65631062	     -0.29605296	      0.69484850	      0.36766864	     25.56553418	      4.15099175	      1.70708350	    -19.37781404	     -4.90809044	     -0.00000000	     -0.00000000	     -0.33820666	     40.15084106	     -6.75383147	      0.64781625	    -59.79446150	      6.66226185	     -0.00000000	     -0.00000000	     -1.04361023	      0.45165525	      5.63926644	     -0.79770990	      5.89674399	     12.51532601	     -0.00000000	      0.61702267	      2.02561568	      0.00000000
      1.79500000	    -15.00301317	     -0.51130602	     -1.83884924	     -0.28977712	      0.69553113	      0.36745838	     24.77878227	      3.84725016	      1.73705894	    -18.88026062	     -4.97525205	      0.00000000	      0.00000000	     -0.32952271	     40.60778958	     -6.44967235	      0.79694624	    -58.23090899	      7.05734894	      0.00000000	      0.00000000	     -1.01632109	      0.63129844	      5.36509579	     -0.55452276	      7.11600996	     12.22205267	      0.00000000	      1.31380644	      2.02533880	      0.00000000
      1.80000000	    -14.86246669	     -0.34734004	     -1.90922039	     -0.28362565	      0.69626979	      0.36709132	     23.73287264	      3.61641302	      1.68294706	    -18.27441792	     -4.98748824	      0.00000000	      0.00000000	     -0.31894876	     40.91336329	     -6.19612307	      1.24954130	    -56.73882429	      7.52954406	      0.00000000	      0.00000000	     -0.99027930	      0.24989286	      5.24562867	     -0.30894999	      6.25413025	     12.73084631	      0.00000000	      1.00435632	      1.24153521	      0.00000000
      1.80500000	    -14.85284405	     -0.14272490	     -2.03450667	     -0.27746093	      0.69673402	      0.36676173	     22.89709498	      3.36455307	      1.70567358	    -17.81138796	     -5.00384861	      0.00000000	      0.00000000	     -0.31086736	     41.32245989	     -5.92166149	      1.49993384	    -55.19015122	      7.79863754	      0.00000000	     -0.00000000	     -0.96324985	      0.13180381	      5.08971909	     -0.05204985	      6.44946469	     12.92095972	     -0.00000000	      1.14347535	      0.65180702	     -0.00000000
      1.81000000	    -14.88023657	      0.06563362	     -2.21612668	     -0.27132603	      0.69696869	      0.36647286	     22.18749960	      3.13231894	      1.81023616	    -17.55352346	     -4.98937773	      0.00000000	      0.00000000	     -0.30636678	     41.76335490	     -5.68471924	      1.62116799	    -53.65264240	      7.96711656	      0.00000000	      0.00000000	     -0.93641526	      0.18867781	      4.95236751	      0.20738153	      7.81153128	     12.92907454	      0.00000000	      1.93290802	      0.64248019	      0.00000000
